<svg xmlns="http://www.w3.org/2000/svg" viewBox="0 0 187.05 41.48"><g id="Layer_2" data-name="Layer 2"><g id="Layer_1-2" data-name="Layer 1"><path d="M42,24.4a61.4,61.4,0,0,1,1.07-7.28c.46-2.21,1.23-4.35,1.8-6.53.61-2.34,1.13-4.7,1.7-7a1.24,1.24,0,0,1,1.25-.82.62.62,0,0,1,.54.68c.43,7.87,1.37,15.69,2,23.54.34,4.09.75,8.17,1.44,12.21,0,.3.15.59.18.88a.56.56,0,0,1-.8.62,1.41,1.41,0,0,1-1.06-1.19c-.56-3.64-.94-7.3-1.29-11-.5-5.29-1-10.59-1.42-15.88-.09-1-.18-2-.28-3A1.63,1.63,0,0,0,47,9.05c-.26,1.07-.64,2.09-1,3.13a48.57,48.57,0,0,0-2.3,11.25c-.09,1.23-.12,2.47-.18,3.71a.49.49,0,0,1,0,.12c-.1.53,0,1.19-.76,1.34-.48.1-1.3-.55-1.5-1.17-.68-2.09-1.17-4.23-1.68-6.37-1-4.08-1.72-8.21-2.51-12.33a1.64,1.64,0,0,0-.27-.7c0,.22,0,.44,0,.66-.1,4,.23,8,.42,11.92.27,5.48.3,11,.24,16.44a22.21,22.21,0,0,1-.31,3c-.07.45-.11,1-.8,1a1.16,1.16,0,0,1-1.18-1.19c0-.58-.16-1.22.57-1.56.22-.1.13-.4.14-.61.08-3.26,0-6.52,0-9.78,0-5.12-.47-10.23-.62-15.34-.12-4,0-8-.06-11.94,0-.6.47-.5.78-.62a.56.56,0,0,1,.79.33,6,6,0,0,1,.26.92C38.25,6,39.05,10.77,40,15.52c.57,2.84,1.27,5.65,1.91,8.48C41.94,24.14,42,24.27,42,24.4Z"/><path d="M134.92,35.35a16.6,16.6,0,0,0,1.38-4.05,34.43,34.43,0,0,0,.73-8.94,1.1,1.1,0,0,1,1.09-1.1c.53,0,.65.39.66.83a21,21,0,0,0,.65,4.68,36.91,36.91,0,0,0,3.35,9.59c.23.4.49.77.77,1.21a2.62,2.62,0,0,0,.3-1.19,87.25,87.25,0,0,0,.55-17.77c-.21-4.07-.48-8.15-.29-12.23a7.09,7.09,0,0,1,.5-2.21c.18-.47.43-.44.78-.23a1,1,0,0,1,.48,1c-.46,5.24.12,10.46.32,15.69a76.67,76.67,0,0,1-.89,16.92,9.29,9.29,0,0,1-.58,1.63.61.61,0,0,1-.86.3A3.81,3.81,0,0,1,142.05,38a25.66,25.66,0,0,1-3.36-7.72,1.85,1.85,0,0,0-.29-.79,3,3,0,0,0-.25,1,23.87,23.87,0,0,1-1.7,5.42,7.8,7.8,0,0,0-.57,1.95.62.62,0,0,1-1,.53,1.78,1.78,0,0,1-1.11-1.07,31.23,31.23,0,0,1-1-4.69c-1.2-7-2-14.08-3.25-21.08-.46-2.53-1-5.06-1.47-7.59-.11-.55-.57-1-.48-1.61.06-.41.21-.51.56-.48a1.44,1.44,0,0,1,1.23,1.14c.35,1.56.66,3.13,1,4.69,1.26,5.85,2.09,11.77,2.89,17.69C133.74,28.72,134.33,31.94,134.92,35.35Z"/><path d="M6.82,23.77c-.06-1.23-.13-2.45-.2-3.68C6.33,14.92,6,9.76,5.45,4.61c0-.28-.08-.56-.11-.84-.1-1-.1-1-1.09-.74A6.19,6.19,0,0,0,.85,5.44c-.12.16-.17.44-.49.3A.57.57,0,0,1,0,5.13a3,3,0,0,1,1.42-2.2,5.46,5.46,0,0,1,3-1.1c.35,0,.71,0,1-.24a.59.59,0,0,1,.46-.06,34.87,34.87,0,0,1,5.79,1.39,23.17,23.17,0,0,1,8.8,6.18,8,8,0,0,1,.52,10,12.91,12.91,0,0,1-7.25,5A27,27,0,0,1,9,25.25c-.29,0-.46.12-.44.48.27,4,.05,8,.45,12a11.65,11.65,0,0,0,.31,1.95.67.67,0,0,1-.18.77c-.27.22-.51.07-.78,0a1.06,1.06,0,0,1-.81-1,48.32,48.32,0,0,1-.43-5.5c0-2.66-.12-5.31-.21-8a.83.83,0,0,0-.52-.87c-1-.51-1.36-1.24-1.1-2.07.06-.19.11-.39.35-.43s.34.13.47.3S6.54,23.46,6.82,23.77ZM20.93,14.1a6.91,6.91,0,0,0-1.72-4.68,18.92,18.92,0,0,0-6.55-4.94A17,17,0,0,0,7.49,2.86c-.49-.06-.62,0-.56.55C7.21,6,7.47,8.5,7.69,11c.36,4.22.62,8.45.82,12.68,0,.46.21.46.56.38A32,32,0,0,0,14,22.71a11.82,11.82,0,0,0,3.45-2C19.43,19,20.87,16.89,20.93,14.1Z"/><path d="M85.28,34.84c-.53,1.59-.94,3.13-1.52,4.62-.18.48-.35,1-1,.92a1.73,1.73,0,0,1-1.37-1.24C81,35.06,80.29,31,79.62,27c-.08-.47-.11-.95-.15-1.43,0-.19-.07-.44.16-.53a.69.69,0,0,1,.74,0A1.41,1.41,0,0,1,81,26.12c.42,3.73,1.34,7.39,1.66,11.14a4.4,4.4,0,0,0,.1.47c.05,0,.11,0,.12-.08a33.66,33.66,0,0,0,1.62-6c.08-.62.54-.66.92-.73s.61.3.65.7a10.83,10.83,0,0,0,.6,2.56,9.07,9.07,0,0,0,1.87,3.11c.12.14.23.41.44.34s.18-.35.2-.53a33.21,33.21,0,0,0,.09-6.76c-.24-2.11-.56-4.2-.69-6.32,0-.64.33-.76.75-.84s.65.21.73.61a2,2,0,0,1,0,.24c.14,3.37,1,6.68.82,10.08-.07,1.12-.12,2.24-.28,3.35-.25,1.63-1,2-2.39,1.11a7.51,7.51,0,0,1-2.49-3A2.09,2.09,0,0,0,85.28,34.84Z"/><path d="M166.28,34.26a28.15,28.15,0,0,1,2.95,2A17.66,17.66,0,0,0,175,39.46c.21.07.47.16.42.43s-.32.27-.58.25a9.44,9.44,0,0,1-4.72-1.88c-1.53-1.07-3-2.25-4.57-3.2l-.46-.31c.16,1.41.31,2.68.47,4a.64.64,0,0,0,.21.35,1.69,1.69,0,0,1,.37,1.88c-.09.38-.37.63-.76.5s-1-.37-1.17-1c-.41-1.86-.45-3.76-.68-5.65-.26-2.12-.35-4.26-.71-6.37-.14-.82-.35-.9-1.08-.44a1.72,1.72,0,0,1-2-.26c-.25-.26-.22-.41.1-.5l1.79-.5c.37-.1.8,0,1.07-.42,0-.06.19-.07.28-.06,1.37.26,2.74-.15,4.11.08a16.53,16.53,0,0,1,4.77,1.53,1.28,1.28,0,0,1,.44,2.14,8.33,8.33,0,0,1-1.72,1.58A27.18,27.18,0,0,1,166.28,34.26ZM165,33.34a4.73,4.73,0,0,0,.5-.2,23.46,23.46,0,0,0,4.91-3.39,4.68,4.68,0,0,0,.55-.63c.25-.32.24-.55-.19-.72a12.61,12.61,0,0,0-6.17-1.11c-.36,0-.49.12-.4.52a31.87,31.87,0,0,1,.55,3.78A8.3,8.3,0,0,0,165,33.34Z"/><path d="M55,39.68c.18-.93.39-2,.58-3.09.57-3.23,1-6.47,1.44-9.72.17-1.2.56-2.37.78-3.57.12-.66.64-.73,1.09-.82s.75.32.86.75c.52,2.14,1.39,4.17,2.07,6.26a17.83,17.83,0,0,1,.7,2.1c.1.53.58.62.8,1s-.3.7-.13,1.18c.53,1.52,1,3.09,1.43,4.64a4.33,4.33,0,0,1,.24,1.29c0,.44-.31.71-.7.55a1.24,1.24,0,0,1-.91-.95c-.42-2-1-3.85-1.65-5.76-.11-.36-.36-.24-.58-.19a18.57,18.57,0,0,0-2.88,1.19,1.35,1.35,0,0,0-.91,1.22,34.25,34.25,0,0,1-.75,3.76,1.6,1.6,0,0,1-.86,1C55.26,40.73,55,40.43,55,39.68Zm2.62-6.19a12.85,12.85,0,0,1,3.3-1.21c.29,0,.22-.23.16-.4-.69-2-1.37-4-2.06-6,0-.06-.06-.11-.16-.3C58.23,28.26,58.14,30.83,57.63,33.49Z"/><path d="M178.81,39.35c-1.35-.79-1.16-2.18-1.31-3.37-.38-2.81-.8-5.62-1.24-8.42,0-.27.17-.68-.2-.78s-.55.16-.67.48c0,.1-.16.11-.26.07-.4-.2-.42-.61-.51-1s.18-.47.45-.53a8.37,8.37,0,0,1,1-.18,10.34,10.34,0,0,1,9.31,3.19,5.47,5.47,0,0,1,1.1,6.31A10.16,10.16,0,0,1,179,40.52a2.44,2.44,0,0,1-2.29-.76C176.29,39.37,178.08,39.59,178.81,39.35Zm.8-.16a10.47,10.47,0,0,0,5.31-4.54,4.44,4.44,0,0,0-.38-5,7.43,7.43,0,0,0-6.07-3c-.89,0-.89,0-.76.83,0,.22,0,.44.09.66C178.49,31.79,178.77,35.5,179.61,39.19Z"/><path d="M154.69,33.14c-.57-.09-1.23.26-1.92,0-.25-.08-.22.27-.27.44-.36,1.39-.7,2.79-1.08,4.18-.22.84-.53,1-1.36.84-.3-.06-.47-.2-.36-.54a94.56,94.56,0,0,0,2.47-11.16c.2-1,.32-2.09.54-3.12.13-.62.58-.61,1-.69s.66.19.77.58c.36,1.27.71,2.54,1.07,3.81a38.32,38.32,0,0,0,1.22,3.76c.17.45.22,1,.79,1.19a.39.39,0,0,1,.16.57c-.29.37-.1.68,0,1,.61,1.59,1.22,3.17,1.82,4.76.12.32.25.65-.06.95s-.66.18-1,0a6.45,6.45,0,0,1-.58-.31c-.13-.07-.29-.21-.19-.32.43-.45,0-.82-.11-1.19-.46-1.3-.93-2.6-1.43-3.88C155.74,33,156.06,33.17,154.69,33.14Zm-.82-5.95-.16,0c-.29,1.63-.59,3.25-.88,4.87-.06.28.08.31.29.26a8.12,8.12,0,0,1,2-.21c.29,0,.35-.11.25-.36C154.74,30.25,154.31,28.72,153.87,27.19Z"/><path d="M71.67,34.82a15.49,15.49,0,0,0-.86,2.33c-.33,1.06-.65,2.14-.94,3.22a1.18,1.18,0,0,1-1,1c-.52.07-.7,0-.57-.55a45.08,45.08,0,0,1,1.78-6,3.23,3.23,0,0,0-.23-3.26A46.16,46.16,0,0,1,67,25.69c-.09-.21-.33-.5,0-.7a.89.89,0,0,1,.92,0,1.68,1.68,0,0,1,.73.91L71.11,31a2.3,2.3,0,0,0,.15.23c.17,0,.18-.12.21-.2.78-1.83,1.57-3.67,2.33-5.52a4.15,4.15,0,0,0,.4-1.61c0-.5.57-.48.91-.56a.58.58,0,0,1,.72.48,1.67,1.67,0,0,1-.06.77,19.29,19.29,0,0,1-1.1,2.85c-.72,1.71-1.44,3.42-2.18,5.13a1,1,0,0,0,.09,1.06C73.77,35.44,75,37.23,76.13,39a1.76,1.76,0,0,1,.31.57.59.59,0,0,1-.19.65.5.5,0,0,1-.62,0,3,3,0,0,1-1-.89C73.7,37.83,72.7,36.37,71.67,34.82Z"/><path d="M98,24.38H99a1.21,1.21,0,0,1,.82.31c.25.25.5.54.25.89s-.56.17-.85,0a5.66,5.66,0,0,0-3.62.21c-.86.3-.88.3-.8,1.19.12,1.41.29,2.82.42,4.23,0,.3.13.39.41.33,1.25-.28,2.5.14,3.76.05a.46.46,0,0,1,.54.44c0,.38-.28.5-.61.53a14.49,14.49,0,0,1-3.22-.2c-.72-.1-.79-.07-.73.63.14,1.52.3,3.05.43,4.58,0,.38.12.54.55.39a17.25,17.25,0,0,1,2.8-.24,17.42,17.42,0,0,0,3-.73l.46-.15c.37-.11.74-.12.88.33s-.19.61-.53.72a15,15,0,0,1-4.92,1,5.53,5.53,0,0,0-1.88.31,1.25,1.25,0,0,1-1.74-1c-.35-2.17-.45-4.37-.66-6.55-.18-1.91-.31-3.83-.49-5.74,0-.27,0-.45.29-.54A10.5,10.5,0,0,1,98,24.38Z"/><path d="M116.73,39.38a1.93,1.93,0,0,1-1.7-1.47c-.28-1.82-.28-3.66-.4-5.5a38.1,38.1,0,0,0-.93-6.27c-.06-.24-.22-.54,0-.71a.89.89,0,0,1,1,0,1.43,1.43,0,0,1,.64,1,38.38,38.38,0,0,1,1,7c.09,1.38.19,2.75.27,4.13,0,.46.13.65.68.44a10.67,10.67,0,0,1,2.69-.58,5.57,5.57,0,0,0,2-.43.52.52,0,0,1,.75.14.62.62,0,0,1-.13.77,1.55,1.55,0,0,1-1.13.47,15,15,0,0,0-2.9.44,3.65,3.65,0,0,0-1.27.49A.82.82,0,0,1,116.73,39.38Z"/><path d="M105.57,24.72c.51,0,.66.43.7.87.15,1.47.42,2.93.65,4.39a41.32,41.32,0,0,1,.47,6.57c0,.12,0,.24,0,.36.09.78.31,1,1.06.72s1.59-.53,2.37-.82a6.38,6.38,0,0,1,2.49-.31c.37,0,.71.12.69.56s-.37.47-.71.46a7.6,7.6,0,0,0-3.18.74,12,12,0,0,1-2.49.64,1.75,1.75,0,0,1-1.53-1,9.25,9.25,0,0,1-.3-3.43,64.35,64.35,0,0,0-1-7.72,11,11,0,0,1-.12-1.14C104.68,25,104.92,24.72,105.57,24.72Z"/><path d="M17,40.11c0,.42-.59.54-.89.88s-.55.06-.78-.17-.61-.15-.53-.54a.94.94,0,0,1,.7-.67,2.86,2.86,0,0,1,.91-.25C16.76,39.35,17,39.56,17,40.11Z"/></g></g></svg>