<svg xmlns="http://www.w3.org/2000/svg" viewBox="0 0 225.09 43.2"><g id="Layer_2" data-name="Layer 2"><g id="Layer_1-2" data-name="Layer 1"><g id="header-condensed"><path d="M50.81,20.38a26.24,26.24,0,0,0,1.53-4.15c.89-3.67,2-7.3,2.61-11,.09-.53.1-1.07.15-1.6,0-.16,0-.42.14-.43.79-.1,1.45-.78,2.35-.47a.9.9,0,0,1,.67.72,19.1,19.1,0,0,1,.35,2.91c.48,6.38,1,12.75,1.75,19.11.47,3.93,1.12,7.83,1.78,11.73.22,1.3.73,2.53,1,3.83.09.53.07,1-.4,1.25a1.52,1.52,0,0,1-1.33,0c-.12-.05-.24-.21-.35-.2-1,.12-1-.66-1.16-1.3a72.87,72.87,0,0,1-2.24-11.89C57,24,56.42,19.17,56.12,14.32c0-.11,0-.24-.13-.35a3.72,3.72,0,0,0-.34,1.12,39.67,39.67,0,0,1-2.79,7.71c-.43.93-1,1.19-1.88.83-1.16-.45-2.36-.9-2.85-2.24-.18-.47-.42-.91-.62-1.37-.06-.12-.11-.25-.18-.43a.93.93,0,0,0-.17.65c-.27,3.73-.26,7.47-.27,11.21A55.49,55.49,0,0,1,46.44,40a8.72,8.72,0,0,1-.16.89,1,1,0,0,1-1,.79H45c-1.38.18-1.58,0-1.43-1.42.18-1.65.32-3.3.34-5,0-3.72-.09-7.44.1-11.15.28-5.21.48-10.43.37-15.65a13.73,13.73,0,0,0-.09-2c-.07-.41,0-.7.51-.71a3.28,3.28,0,0,0,.91-.28,1.18,1.18,0,0,1,1.73,1.06,76.39,76.39,0,0,0,2.48,11.59A9.49,9.49,0,0,0,50.81,20.38Z"/><path d="M164.44,35.4a34.79,34.79,0,0,0,1.2-5.07c.2-1.28.34-2.58.49-3.87,0-.34.11-.6.53-.66a2.75,2.75,0,0,0,.75-.37c1-.48,1.55-.21,1.85.83A33.86,33.86,0,0,0,173,35.34c.41.63.83,1.25,1.24,1.87l.17-.05c.09-1,.25-2.09.27-3.14.1-4.4.11-8.8-.12-13.19-.19-3.56-.14-7.12,0-10.68.07-2.38,0-4.76-.13-7.13a18.39,18.39,0,0,1,0-2.1c0-.83.82-1.14,1.56-.76A2.13,2.13,0,0,1,177,1.89a48.3,48.3,0,0,1,.46,10.94c-.11,2.79,0,5.56.09,8.34a100.24,100.24,0,0,1-.23,15.88c-.09.81-.13,1.63-.19,2.45-.08,1.07-.64,1.48-1.69,1.27a5.77,5.77,0,0,1-4-2.78,40.15,40.15,0,0,1-3.05-5.43,1.49,1.49,0,0,0-.15-.27.89.89,0,0,0-.24.61A51.26,51.26,0,0,1,166.1,39a1.36,1.36,0,0,1-2.16.79c-.12-.07-.22-.21-.35-.22-.92-.07-1.08-.77-1.3-1.47a38.56,38.56,0,0,1-1.82-5.95c-.4-2.67-.69-5.36-1-8-.46-3.93-1.2-7.82-1.9-11.71-.44-2.44-.89-4.88-1.1-7.35a1.23,1.23,0,0,1,1.67-1.43A1.47,1.47,0,0,1,159.41,5c.41,5.06,1.67,10,2.46,15,.48,3,.72,6,1.12,9a35.82,35.82,0,0,0,1.12,5.82A.85.85,0,0,0,164.44,35.4Z"/><path d="M5.52,13.53c-.06-2.59-.08-5.31,0-8,0-.49-.1-.67-.62-.62a6.78,6.78,0,0,0-2.05.4C1.75,5.77,1,5.09.1,4.59c-.21-.13,0-.27.09-.36a2.62,2.62,0,0,1,1-.46,21.91,21.91,0,0,1,4-.59c.27,0,.52,0,.62-.33s.33-.27.55-.26a2.81,2.81,0,0,1,1.06.13c1.33.66,2.81.5,4.2.79A17.3,17.3,0,0,1,18,6a7.65,7.65,0,0,1,3.35,8.48,15.09,15.09,0,0,1-6.48,9.74,9.34,9.34,0,0,1-5.46,1.7c-.29,0-.39.08-.37.37.27,4.77.1,9.56.63,14.32.06.56.05,1.1-.51,1.41a1.74,1.74,0,0,1-1.49-.1c-.09,0-.17-.17-.25-.16-1.38.09-1.15-1-1.2-1.75-.34-4.93-.42-9.87-.58-14.8a1.87,1.87,0,0,0-.23-1,1.41,1.41,0,0,1,0-1.43,2.34,2.34,0,0,0,.24-1.15C5.58,19,5.68,16.32,5.52,13.53Zm3.39,1v.69c0,2.78,0,5.56,0,8.33,0,.46.16.6.59.57a4.44,4.44,0,0,0,2-.6,12.33,12.33,0,0,0,3.9-3.5,14.91,14.91,0,0,0,3-7,6.59,6.59,0,0,0-3.89-7A17.25,17.25,0,0,0,9.35,4.87c-.48,0-.6.1-.6.58C8.75,8.45,8.76,11.44,8.91,14.53Z"/><path d="M108.45,36.37a17,17,0,0,0-.08-2.6,56.65,56.65,0,0,1-.21-6.77,9.39,9.39,0,0,1,.53-2.39,2.78,2.78,0,0,1,1.58-.82c.61.11.85.42.91,1.2a2.44,2.44,0,0,1,0,.54,38.42,38.42,0,0,0,.07,9,49.08,49.08,0,0,1-.13,5.69,1,1,0,0,1-1.29,1A4.15,4.15,0,0,1,107,39.4c-1.08-1.85-2.17-3.68-3.13-5.6-.06-.11-.09-.27-.33-.32-.26,1.07-.62,2.12-1,3.17a36.6,36.6,0,0,1-1.34,3.53c-.55,1.2-1.31,1.38-2.53.7-.06,0-.12-.13-.19-.14-1-.06-1-.76-1.21-1.5-.82-3.61-1.24-7.29-1.71-11a2.92,2.92,0,0,1,0-.78c0-.34-.1-.85.29-1,.56-.17,1.08-.66,1.76-.34a1.07,1.07,0,0,1,.64.66,4.2,4.2,0,0,1,.18,1c.16,2.66.65,5.27,1,7.9a.76.76,0,0,0,.2.52,37.71,37.71,0,0,0,1.5-5.75c.11-.63.21-1.26.3-1.9,0-.35.16-.58.56-.65a2.89,2.89,0,0,0,.76-.35c.92-.48,1.54-.23,1.85.75a50.07,50.07,0,0,0,3.21,7.22A1.46,1.46,0,0,0,108.45,36.37Z"/><path d="M200.55,35.05a43.57,43.57,0,0,0,6.64,3.29,27.14,27.14,0,0,1,3.82,2,.93.93,0,0,1,.38,1.07.82.82,0,0,1-.95.55,6.06,6.06,0,0,1-2-.82c-2.11-1.18-4.38-2-6.54-3.1-.84-.42-1.66-.88-2.49-1.31a3.11,3.11,0,0,0-1.25-.48,2.55,2.55,0,0,0,.4,1.58,3.07,3.07,0,0,1-.13,2.92,1.3,1.3,0,0,1-1.91.07,1.1,1.1,0,0,0-.56-.32c-.54-.05-.65-.39-.66-.88a56.1,56.1,0,0,0-.68-7.87c-.19-1.19-.17-2.39-.41-3.57,0-.11,0-.22-.09-.39-.43.34-.82.74-1.36.48a7.13,7.13,0,0,1-1.21-.74c-.24-.18-.13-.48,0-.71a2.3,2.3,0,0,1,1-.95,8.34,8.34,0,0,1,5.41-1.1,19.88,19.88,0,0,1,5.37,2,3.63,3.63,0,0,1,.65,5.9,23.89,23.89,0,0,1-2.48,1.78C201.21,34.64,200.9,34.82,200.55,35.05ZM196,26.53c.42.2.74.31.87.67a6.22,6.22,0,0,1,.32,1.27c.22,1.66.28,3.34.62,5,.08.39.17.52.55.25.67-.47,1.36-.9,2-1.35a4.71,4.71,0,0,0,1.48-1.53,2.29,2.29,0,0,0-.63-3.08,12.62,12.62,0,0,0-3.82-1.35A3,3,0,0,0,196,26.53Z"/><path d="M77.36,42.27a1.55,1.55,0,0,1-.92-.29,1.55,1.55,0,0,0-.83-.43c-.31-.06-.42-.28-.5-.54-.48-1.52-1-3-1.45-4.57-.13-.44-.28-.57-.75-.43a3.44,3.44,0,0,1-2.56.17c-.27-.12-.23.21-.27.35-.31,1.22-.62,2.44-.91,3.67-.2.85-.6,1.48-1.59,1.48a.34.34,0,0,0-.23,0,.55.55,0,0,1-.76.05c-.27-.2-.25-.51-.21-.82.17-1.23.54-2.42.78-3.63.89-4.51,2-9,2.67-13.52.08-.57.23-1,.92-1.11a1.91,1.91,0,0,0,.49-.21c1-.39,1.52-.15,1.72.83.69,3.27,1.72,6.44,2.6,9.66.12.44.22.79.78.77s.63.28.72.69a.69.69,0,0,1-.48.8c-.37.16-.29.35-.21.6a29.23,29.23,0,0,0,1.44,4.06,4.28,4.28,0,0,1,.39,1.44A.88.88,0,0,1,77.36,42.27Zm-5.59-12.6h-.14c-.38,1.66-.77,3.33-1.15,5-.07.33.07.33.32.24.62-.21,1.25-.42,1.87-.61.24-.07.34-.17.27-.42Z"/><path d="M210.7,28.87c0-.26,0-.52.07-.78.06-.45-.14-.48-.47-.31a9.13,9.13,0,0,1-1.67.64.73.73,0,0,1-.58,0c-.38-.17-.8-.35-.86-.83s.36-.66.67-.84a9.53,9.53,0,0,1,3.82-1.12c4.73-.56,8.65,1.24,12.07,4.32a4.78,4.78,0,0,1,.55,6,10.11,10.11,0,0,1-3.58,3,20.08,20.08,0,0,1-3.95,1.57A1.55,1.55,0,0,0,216,41a1.24,1.24,0,0,1-1.88,0c-.1-.09-.19-.25-.31-.27-.8-.1-.95-.73-1.14-1.34a51.88,51.88,0,0,1-1.66-8A16.86,16.86,0,0,1,210.7,28.87Zm1.82-1.56c.81.26.88.91.92,1.56a48.18,48.18,0,0,0,1.7,9c.3,1.08.31,1.1,1.37.68A11,11,0,0,0,221.43,35a3.31,3.31,0,0,0,.55-2.9,4.61,4.61,0,0,0-2.21-2.87,14.49,14.49,0,0,0-4.34-1.84A7.9,7.9,0,0,0,212.52,27.31Z"/><path d="M86.78,31a28,28,0,0,0,2-6.82A1.38,1.38,0,0,1,91,23.12a.89.89,0,0,1,.35.54,5,5,0,0,1,.14,2.71,40.14,40.14,0,0,1-3,8,1.33,1.33,0,0,0,0,1.24c.78,1.78,1.44,3.6,2.33,5.33.14.27-.29-.34,0-.14a2.23,2.23,0,0,1,.66,1.5.92.92,0,0,1-.86.87,1.67,1.67,0,0,1-.59-.11c-1.05-.48-1.56-.05-2.05-1.27-.37-.92-.85-1.8-1.31-2.75A3.86,3.86,0,0,0,86,40.22c-.19.41-.36.85-.57,1.25a1.19,1.19,0,0,1-1.22.71,1.58,1.58,0,0,0-.53,0c-.92.22-1.25-.06-1-1a50.21,50.21,0,0,1,2.05-5.57,1.38,1.38,0,0,0,0-1.14c-.94-2.36-1.71-4.78-2.83-7.07a2.68,2.68,0,0,1-.17-.69c0-.14,0-.36.13-.37.66,0,1.2-.56,1.9-.42a1.41,1.41,0,0,1,1,.84c.61,1.2,1.09,2.45,1.62,3.68A.81.81,0,0,0,86.78,31Z"/><path d="M190.39,40.48a1.53,1.53,0,0,1-1-.41.54.54,0,0,0-.35-.21c-.77-.06-.85-.65-1-1.22-.18-.84-.39-1.67-.56-2.52a.44.44,0,0,0-.53-.42c-.59,0-1.19.08-1.79.09-.31,0-.32.24-.38.45a28.78,28.78,0,0,1-1,3.16,1.19,1.19,0,0,1-1.46.92,1.13,1.13,0,0,0-.41,0c-.74.21-1.06,0-.92-.81s.38-1.76.57-2.64c.81-3.83,1.63-7.66,2.59-11.46.14-.52.22-1,.91-1.06a2.52,2.52,0,0,0,.71-.33,1.23,1.23,0,0,1,1.84.77c.37,1.26.64,2.55,1,3.83.4,1.55.74,3.12,1.23,4.64.65,2,.83,4.09,1.43,6.09A.88.88,0,0,1,190.39,40.48Zm-4.21-9.73H186a29.19,29.19,0,0,0-.64,3.09c0,.35.22.33.37.25.38-.19,1.18.26,1.13-.39A17.19,17.19,0,0,0,186.18,30.75Z"/><path d="M120.4,33.14a12.88,12.88,0,0,0-2.41.16c-.24,0-.31.14-.3.35.1,1.5.21,3,.31,4.49,0,.28.21.27.41.31a4.56,4.56,0,0,0,3.19-.53,1.62,1.62,0,0,1,1.24-.25.86.86,0,0,1,.7.82c.07.42-.26.64-.57.82a7.6,7.6,0,0,1-5.74.66,9.27,9.27,0,0,1-1.55-.76c-.33-.14-.28-.54-.3-.86-.16-2.73-.3-5.46-.46-8.2a29.52,29.52,0,0,1-.26-3.88c0-.59.26-.75.8-.53a1.19,1.19,0,0,0,1-.09,4.88,4.88,0,0,1,3.1-.32c.77.14,1.52.36,2.28.52a.83.83,0,0,1,.7,1c-.07.5-.5.67-1,.57s-1.15-.18-1.71-.31a5.22,5.22,0,0,0-2.26-.06c-.37.07-.44.2-.4.54.14,1.28.25,2.55.36,3.82,0,.33.09.42.43.29a7.67,7.67,0,0,1,4-.1c.52.06.6.48.59.82a.74.74,0,0,1-.72.71C121.39,33.16,121,33.14,120.4,33.14Z"/><path d="M148.57,40.25c-1.12,0-2.22-.25-3.34-.25a5.06,5.06,0,0,0-2.78.79,1.57,1.57,0,0,1-1.59.07c-.45-.19-.79-.58-1.31-.65-.19,0-.18-.25-.22-.39a11,11,0,0,1-.28-2.74,55.38,55.38,0,0,0-.92-7.37,4.27,4.27,0,0,1-.07-1.13c.05-.77.46-1.1,1.25-1,1.2.15,1.54.47,1.75,1.65a70.54,70.54,0,0,1,1.07,9c0,.21-.11.6.38.41a9.11,9.11,0,0,1,4.37-.31,5,5,0,0,0,2.48-.08,1,1,0,0,1,1.16.6,1,1,0,0,1-.65,1.23A3,3,0,0,1,148.57,40.25Z"/><path d="M130.57,40.88c-.67-.11-1.23-.06-1.61-.55a.23.23,0,0,0-.16-.08c-.73,0-.65-.49-.75-1-.63-3.25-.42-6.56-.85-9.82a14.25,14.25,0,0,1-.17-2.69c0-.65.23-.77.85-.64a1.89,1.89,0,0,0,.23.05c1.46.18,1.51.2,1.66,1.69.32,3.12.68,6.24.87,9.37a4.91,4.91,0,0,0,.06.66c.18.91.22.85,1.13.85a7.53,7.53,0,0,0,3.35-1,.88.88,0,0,1,1.35.61.81.81,0,0,1-.27.7,4.3,4.3,0,0,1-1.66,1C133.25,40.54,131.78,40.38,130.57,40.88Z"/><path d="M27,41.5c-.68,0-1.25-.44-1.94-.47-.35,0-.25-.43-.14-.64a2.34,2.34,0,0,1,2.35-.6,1,1,0,0,1,.22,1.55A.54.54,0,0,1,27,41.5Z"/></g></g></g></svg>