<svg xmlns="http://www.w3.org/2000/svg" viewBox="0 0 45 21.38"><g id="Layer_2" data-name="Layer 2"><g id="Layer_1-2" data-name="Layer 1"><path d="M3.2,18a32.27,32.27,0,0,0,.54-3.6,21.3,21.3,0,0,0,.34-3c0-.51.47-.49.78-.59s.56.13.65.45a43.66,43.66,0,0,0,1.81,4.74A16.59,16.59,0,0,0,8.89,18.9c.07.1.13.29.3.22s.13-.2.15-.31a4.62,4.62,0,0,0,.05-.65A75.64,75.64,0,0,0,8.84,7.74a33.34,33.34,0,0,1-.05-6.55c.05-.5.53-.53.91-.54s.49.3.44.63c-.52,3.88.21,7.7.47,11.54.13,1.87.11,3.74.07,5.61a4.25,4.25,0,0,1-.21,1.05,1.06,1.06,0,0,1-1.56.78,3,3,0,0,1-1.56-1.51A24.3,24.3,0,0,1,5.47,15a1,1,0,0,0-.31-.55,2,2,0,0,0-.2,1C4.88,17,4.43,18.47,4.28,20c0,.41-.12,1-.67,1a1.2,1.2,0,0,1-1.26-.73,9.78,9.78,0,0,1-.74-3.49C1.5,14.09,1,11.41.69,8.7A56.58,56.58,0,0,1,0,1.35C0,1,0,.67.05.33S.27-.09.45.05c.36.27.84.47.84,1.06.07,4.31.92,8.53,1.42,12.79.14,1.15.19,2.3.29,3.45C3,17.58,3,17.83,3.2,18Z"/><path d="M27.14,12.16A25.26,25.26,0,0,0,27.51,16c.22,1,.16,1.93.38,2.89.07.34,0,.7-.46.75a.92.92,0,0,1-.87-.69c-.28-2.78-.53-5.57-.84-8.35A42.92,42.92,0,0,1,25.49,2c.07-.78,0-.84-.77-.62a2.67,2.67,0,0,1-1.58.15c-.13,0-.3-.09-.33-.23s.15-.22.27-.27a4.81,4.81,0,0,1,4.85.22,13.13,13.13,0,0,1,2.46,2,2.75,2.75,0,0,1,.25,3.61,13.21,13.21,0,0,1-2.28,2.67l-.26.25c-.62.68-.6.66-.11,1.44a65,65,0,0,0,6.51,8.47,5.44,5.44,0,0,1,.51.8c.07.12.14.26,0,.39a.39.39,0,0,1-.39.07,2.44,2.44,0,0,1-1.17-.8,66.44,66.44,0,0,1-5.92-7.57A.84.84,0,0,0,27.14,12.16Zm-.31-2.68a14.2,14.2,0,0,0,2.85-3.23,2,2,0,0,0-.07-2.5A9.41,9.41,0,0,0,27,1.64c-.24-.15-.35-.1-.37.19,0,.58-.07,1.15-.09,1.73A30.25,30.25,0,0,0,26.83,9.48Z"/><path d="M38,9.66a52.85,52.85,0,0,0,.35,5.4c.15,1.16.36,2.31.57,3.47A2.73,2.73,0,0,0,39.51,20a1,1,0,0,1,.11,1,.42.42,0,0,1-.49.34c-.38-.11-.78-.22-.9-.69-.29-1.07-.52-2.16-.73-3.26A56.69,56.69,0,0,1,36.8,10c-.14-2.9-.25-5.81-.26-8.71,0-.16-.13-.39.11-.47s.26.19.39.28a1.69,1.69,0,0,1,.6,1.37c.14,1.78.12,3.57.23,5.39.28-.06.31-.28.38-.44a58.63,58.63,0,0,1,3.28-6.1,2.9,2.9,0,0,1,.39-.53.42.42,0,0,1,.59-.07.44.44,0,0,1,.19.57,9.55,9.55,0,0,1-.51,1A59.68,59.68,0,0,0,39,8.4a.67.67,0,0,0,0,.71c1.48,2.5,2.89,5,4.47,7.49.41.63.81,1.27,1.21,1.92a4,4,0,0,1,.28.59.4.4,0,0,1-.11.49.42.42,0,0,1-.5,0,1.53,1.53,0,0,1-.6-.56c-1.85-2.86-3.66-5.74-5.26-8.75A1.45,1.45,0,0,0,38,9.66Z"/><path d="M13.38,10.15a22.78,22.78,0,0,1,1.43-7.34,6.88,6.88,0,0,1,.7-1.38,1.17,1.17,0,0,1,1-.59c.29,0,.55.08.44.44a.36.36,0,0,0,.27.51,3.07,3.07,0,0,1,1.86,1.9,20,20,0,0,1,1.69,5.64,14,14,0,0,1-1.24,8.43c-.18.36-.36.71-.57,1a2,2,0,0,1-3.47.3,5,5,0,0,1-1.06-1.86A19.68,19.68,0,0,1,13.38,10.15Zm1.26.62V11a16.66,16.66,0,0,0,1.27,6.69,3,3,0,0,0,.87,1.2.46.46,0,0,0,.76-.07,6.72,6.72,0,0,0,.71-1.18C20.63,12.77,19.81,8,17.6,3.36a1.84,1.84,0,0,0-.72-.77c-.44-.28-.67-.22-.85.3A21.89,21.89,0,0,0,14.64,10.77Z"/></g></g></svg>