<svg xmlns="http://www.w3.org/2000/svg" viewBox="0 0 29.6 23.22"><g id="Layer_2" data-name="Layer 2"><g id="Layer_1-2" data-name="Layer 1"><path d="M7.44,16.9a1.17,1.17,0,0,0-.12.74c0,1.2,0,2.39,0,3.58.06.85-.63,1.22-1,1.8-.09.14-.3.08-.34-.14a3.87,3.87,0,0,1,0-.48c-.07-2.5-.13-5-.21-7.51,0-.84,0-1.67-.12-2.5-.05-.63.47-.7.83-.86s.59.19.71.53Q8.31,15,9.4,17.94A7.15,7.15,0,0,0,10.48,20c0-.23,0-.45,0-.68-.15-1.52-.18-3.05-.21-4.58,0-.9-.22-1.78-.23-2.67,0-.51.14-.92.66-1s.63.43.72.81a7.39,7.39,0,0,1,.24,1.47c.1,2.88.29,5.76.46,8.64.06,1.05-.08,1.16-1.12,1.2a.66.66,0,0,1-.62-.37,20.78,20.78,0,0,1-2.64-5.13C7.66,17.48,7.56,17.24,7.44,16.9Z"/><path d="M29.6,17.47a7.2,7.2,0,0,1-1,3.77c-1.15,1.92-2.44,2.06-4.3,1.78a2.3,2.3,0,0,1-1.53-1.33,5.68,5.68,0,0,1-.51-3.55,20.57,20.57,0,0,1,1.57-5.37c.36-.83.44-.83,1.28-.49,0,0,.08.05.11,0,.79-.41,1.14.28,1.61.66a1.82,1.82,0,0,0,.45.29c1.6.59,2.11,1.88,2.25,3.42C29.57,17,29.58,17.21,29.6,17.47ZM25.06,13c-.61,2.12-1.49,4-1.38,6.18a4.27,4.27,0,0,0,.56,1.94,1.76,1.76,0,0,0,1.54,1.06,1.69,1.69,0,0,0,1.53-1.08,7.24,7.24,0,0,0,.8-4.16,3.21,3.21,0,0,0-2-3C25.69,13.81,25.44,13.45,25.06,13Z"/><path d="M1.67,22.88c-.48.19-.51-.13-.55-.55C.35,15.3.32,8.24,0,1.2A1,1,0,0,1,0,.9C.13.6-.23.09.3,0A1,1,0,0,1,1.35,1c.2,2.48.28,5,.33,7.45.07,3.58.48,7.14.54,10.72a16,16,0,0,0,.39,2.65C2.77,22.71,2.65,22.87,1.67,22.88Z"/><path d="M15.52,12.67l.25,3.84A5.94,5.94,0,0,1,19,15.88a3.17,3.17,0,0,1,1.06.16.46.46,0,0,1,.35.5.44.44,0,0,1-.45.39,2.88,2.88,0,0,1-.72,0,20.18,20.18,0,0,0-3.11,0c-.31,0-.4.14-.39.44,0,1.27,0,2.55.05,3.82A2.16,2.16,0,0,0,16,22c.23.55,0,.9-.59.91-.77,0-.87-.05-.95-.84a11.75,11.75,0,0,1-.08-1.67c.09-2.37,0-4.73-.11-7.09a7,7,0,0,1,0-1c.05-.48.27-.59.71-.36a.4.4,0,0,0,.39,0A2.32,2.32,0,0,1,17,12a12,12,0,0,0,3.64.07,3.25,3.25,0,0,1,.54,0,.46.46,0,0,1,.44.48c0,.26-.18.39-.4.45a2.32,2.32,0,0,1-.53,0A17.58,17.58,0,0,1,15.52,12.67Z"/></g></g></svg>