<svg xmlns="http://www.w3.org/2000/svg" viewBox="0 0 45 21.29"><g id="Layer_2" data-name="Layer 2"><g id="Layer_1-2" data-name="Layer 1"><path d="M17.76,17.35c-.45-2.47-.29-5-.65-7.43a26.68,26.68,0,0,1-.2-7.14A10.93,10.93,0,0,0,17,.64c0-.6.37-.59.72-.63s.63.18.62.6a18.43,18.43,0,0,1-.1,2,24.94,24.94,0,0,0,.11,7c.14,1.07.24,2.14.31,3.21A26,26,0,0,0,19.15,17a9.42,9.42,0,0,1,.14,2.37c0,.37.11.8-.39,1a1.35,1.35,0,0,1-1.36-.54c-.28-.55-.47-1.14-.78-1.67a72,72,0,0,1-5-11.29c0-.11-.09-.21-.16-.39a.76.76,0,0,0-.09.59c.33,2.43.2,4.88.35,7.32a37.51,37.51,0,0,1,0,5.61A1,1,0,0,1,10.92,21c-.45.11-.49,0-.46-.37.07-.86.18-1.71.17-2.56,0-3.82-.18-7.64-.47-11.45a22.77,22.77,0,0,1,.08-4.29,2,2,0,0,0,0-.77c-.16-.57.23-.63.61-.7a.57.57,0,0,1,.75.49,41.25,41.25,0,0,0,3.22,9.84,53.16,53.16,0,0,0,2.63,5.62Z"/><path d="M37.75,11a20.84,20.84,0,0,1,2.13-9.56c.08-.17.15-.31.35-.36a4.76,4.76,0,0,1,2.19,0c.34.06.51.36.69.63a13.3,13.3,0,0,1,1.56,4.79,25,25,0,0,1-.05,8.36c-.16,1.08-.18,2.18-.44,3.25a3.5,3.5,0,0,1-1.87,2.49,2.18,2.18,0,0,1-2.72-.44,5.48,5.48,0,0,1-1.49-3.37C37.86,14.66,37.81,12.54,37.75,11Zm1.2.29c0,1.88.14,3.57.34,5.25a5.26,5.26,0,0,0,1.33,3.25.75.75,0,0,0,1,.16,2.57,2.57,0,0,0,1.26-1.67,15.65,15.65,0,0,0,.44-2.64,29.05,29.05,0,0,0,.29-8,16.79,16.79,0,0,0-1.39-5.34c-.25-.49-.65-.43-1.06-.46s-.44.32-.54.58-.14.37-.2.56C39.49,5.68,38.61,8.45,39,11.24Z"/><path d="M23.88,14.65c.07-3.52-.28-7-.44-10.55,0-.84-.1-1.69-.14-2.54,0-.15,0-.34.18-.39s.23.11.33.2a1.46,1.46,0,0,0,1,.35,53.66,53.66,0,0,0,6.59-.14,6.16,6.16,0,0,1,1,0,.45.45,0,0,1,.42.49.45.45,0,0,1-.39.46,3.43,3.43,0,0,1-.78.07c-2.23-.17-4.47.06-6.7-.08-.32,0-.36.14-.34.4l.36,5.23c0,.16,0,.35.25.3,1.44-.29,2.92-.14,4.35-.44a1.44,1.44,0,0,1,.87,0c.23.08.4.21.39.46a.43.43,0,0,1-.49.41,42.66,42.66,0,0,1-4.79.22c-.48,0-.55.11-.52.56A48.49,48.49,0,0,1,25.1,17a8.48,8.48,0,0,0,.23,2.61c.09.38.16.72-.32.86a1,1,0,0,1-1-.65,14.12,14.12,0,0,1-.17-2.43c0-.24,0-.48,0-.72Z"/><path d="M2.54,15.8c0,1.27,0,2.54,0,3.81a3.87,3.87,0,0,0,.12.82c.08.36.12.69-.31.84a1.11,1.11,0,0,1-1.09-.59,11.57,11.57,0,0,1-.11-1.31C1.05,14.66.56,10,.39,5.26.34,4,.17,2.69.07,1.4c0-.26-.25-.62.22-.73a.88.88,0,0,1,1,.63c.11.64.18,1.3.24,2C1.91,7.43,2,11.62,2.54,15.8Z"/></g></g></svg>