<svg xmlns="http://www.w3.org/2000/svg" viewBox="0 0 39.21 21.38"><g id="Layer_2" data-name="Layer 2"><g id="Layer_1-2" data-name="Layer 1"><path d="M3.2,18a32.27,32.27,0,0,0,.54-3.6,21.3,21.3,0,0,0,.34-3c0-.51.47-.49.78-.59s.56.13.65.45a43.66,43.66,0,0,0,1.81,4.74A16.59,16.59,0,0,0,8.89,18.9c.07.1.13.29.3.22s.13-.2.15-.31a4.62,4.62,0,0,0,.05-.65A75.64,75.64,0,0,0,8.84,7.74a33.34,33.34,0,0,1-.05-6.55c.05-.5.53-.53.91-.54s.49.3.44.63c-.52,3.88.21,7.7.47,11.54.13,1.87.11,3.74.07,5.61a4.25,4.25,0,0,1-.21,1.05,1.06,1.06,0,0,1-1.56.78,3,3,0,0,1-1.56-1.51A24.3,24.3,0,0,1,5.47,15a1,1,0,0,0-.31-.55,2,2,0,0,0-.2,1C4.88,17,4.43,18.47,4.28,20c0,.41-.12,1-.67,1a1.2,1.2,0,0,1-1.26-.73,9.78,9.78,0,0,1-.74-3.49C1.5,14.09,1,11.41.69,8.7A56.58,56.58,0,0,1,0,1.35C0,1,0,.67.05.33S.27-.09.45.05c.36.27.84.47.84,1.06.07,4.31.92,8.53,1.42,12.79.14,1.15.19,2.3.29,3.45C3,17.58,3,17.83,3.2,18Z"/><path d="M23.15,12.16A24.06,24.06,0,0,0,23.52,16c.22,1,.15,1.93.37,2.89.08.34,0,.7-.45.75a.93.93,0,0,1-.88-.69c-.27-2.78-.52-5.57-.84-8.35A43.66,43.66,0,0,1,21.5,2c.06-.78,0-.84-.77-.62a2.67,2.67,0,0,1-1.58.15c-.13,0-.3-.09-.33-.23s.14-.22.27-.27a4.81,4.81,0,0,1,4.85.22,12.75,12.75,0,0,1,2.45,2,2.75,2.75,0,0,1,.26,3.61,13,13,0,0,1-2.29,2.67l-.25.25c-.62.68-.6.66-.11,1.44a65,65,0,0,0,6.5,8.47,5.49,5.49,0,0,1,.52.8c.07.12.14.26,0,.39a.41.41,0,0,1-.4.07,2.54,2.54,0,0,1-1.17-.8,66.44,66.44,0,0,1-5.92-7.57A.77.77,0,0,0,23.15,12.16Zm-.31-2.68a14.2,14.2,0,0,0,2.85-3.23,2,2,0,0,0-.08-2.5A9.36,9.36,0,0,0,23,1.64c-.24-.15-.36-.1-.37.19,0,.58-.07,1.15-.09,1.73A30.25,30.25,0,0,0,22.84,9.48Z"/><path d="M32.22,9.66a50.15,50.15,0,0,0,.35,5.4c.14,1.16.36,2.31.56,3.47A2.82,2.82,0,0,0,33.72,20a1,1,0,0,1,.11,1,.42.42,0,0,1-.5.34c-.37-.11-.77-.22-.89-.69-.29-1.07-.53-2.16-.73-3.26A55,55,0,0,1,31,10c-.15-2.9-.25-5.81-.26-8.71,0-.16-.13-.39.11-.47s.26.19.39.28a1.72,1.72,0,0,1,.6,1.37C32,4.2,32,6,32.08,7.81c.28-.06.3-.28.38-.44a60.5,60.5,0,0,1,3.27-6.1,4.26,4.26,0,0,1,.39-.53.43.43,0,0,1,.6-.07.44.44,0,0,1,.19.57,9.55,9.55,0,0,1-.51,1A57.78,57.78,0,0,0,33.21,8.4a.65.65,0,0,0,0,.71c1.48,2.5,2.89,5,4.47,7.49.41.63.81,1.27,1.21,1.92a4,4,0,0,1,.28.59.42.42,0,0,1-.61.52,1.56,1.56,0,0,1-.61-.56c-1.84-2.86-3.65-5.74-5.25-8.75A1.53,1.53,0,0,0,32.22,9.66Z"/><path d="M12.53,10.15A22.78,22.78,0,0,1,14,2.81a6.88,6.88,0,0,1,.7-1.38,1.16,1.16,0,0,1,1-.59c.29,0,.55.08.44.44a.36.36,0,0,0,.27.51,3.07,3.07,0,0,1,1.86,1.9,20.38,20.38,0,0,1,1.69,5.64,14,14,0,0,1-1.24,8.43c-.18.36-.36.71-.57,1a2,2,0,0,1-3.47.3,5,5,0,0,1-1.06-1.86A19.68,19.68,0,0,1,12.53,10.15Zm1.26.62V11a16.66,16.66,0,0,0,1.27,6.69,3,3,0,0,0,.87,1.2.46.46,0,0,0,.76-.07,6.72,6.72,0,0,0,.71-1.18C19.78,12.77,19,8,16.75,3.36A1.84,1.84,0,0,0,16,2.59c-.44-.28-.67-.22-.86.3A22.1,22.1,0,0,0,13.79,10.77Z"/></g></g></svg>