<svg xmlns="http://www.w3.org/2000/svg" viewBox="0 0 37.35 24.49"><g id="Layer_2" data-name="Layer 2"><g id="Layer_1-2" data-name="Layer 1"><path d="M11,0a42.22,42.22,0,0,0,.48,4.75c.25,2.5.11,5,.2,7.51a44.9,44.9,0,0,1-.2,7.15,17,17,0,0,1-.78,3.67,1.16,1.16,0,0,1-1,.9,1.23,1.23,0,0,1-1.35-.65,18,18,0,0,1-1.79-5.48c-.15-.65-.28-1.31-.45-2.13a7.5,7.5,0,0,0-.36,2c-.24,1.94-.86,3.8-1.26,5.71-.1.49-.41.69-1,.71s-.68-.26-.79-.68a56.07,56.07,0,0,1-1.58-9.1C.82,10.09.41,5.83,0,1.57A2.35,2.35,0,0,1,0,1C.06.72-.13.29.22.26a1,1,0,0,1,1,.59,1.43,1.43,0,0,1,.06.35c.29,3.29.55,6.59.88,9.87s.38,6.44,1.33,9.56c.05.17.1.34.18.63a7.39,7.39,0,0,0,.54-2,67.93,67.93,0,0,0,1-8.76A.9.9,0,0,1,6,9.65c.33-.1.49.16.5.5a50.76,50.76,0,0,0,1.78,9.54,9.87,9.87,0,0,0,1,2.5c.08.15.12.34.36.44a12.26,12.26,0,0,0,.6-3.15A115.29,115.29,0,0,0,10.11,4C10,2.69,9.8,1.35,9.76,0Z"/><path d="M23.79,19.06A20.63,20.63,0,0,0,24,21.9c0,.31.07.61-.22.82s-.62,0-.92,0-.2-.27-.21-.45c-.07-2.76-.38-5.51-.54-8.27,0-.36-.12-.43-.46-.39s-.69,0-.74-.23.37-.34.61-.43a3.14,3.14,0,0,1,1.36-.14,9.5,9.5,0,0,1,4,1.17,3.79,3.79,0,0,1,.77.56,1.21,1.21,0,0,1,0,1.93A12.21,12.21,0,0,1,25.49,18c-.4.25-.4.38,0,.69A60.57,60.57,0,0,1,29.79,23a8.55,8.55,0,0,1,.65.7.5.5,0,0,1,.07.56c-.11.21-.32.21-.52.21a1.37,1.37,0,0,1-.85-.41,31.46,31.46,0,0,1-2.46-2.44c-.75-.75-1.5-1.49-2.26-2.22A.88.88,0,0,0,23.79,19.06Zm-.1-.76c.89-.85,1.89-1.31,2.68-2,.64-.57.63-.93,0-1.44a6.94,6.94,0,0,0-2.79-1.16c-.34-.08-.31.13-.29.34C23.4,15.38,23.53,16.76,23.69,18.3Z"/><path d="M32.58,18.79a1.1,1.1,0,0,0-.41,1c0,1,.06,2.1.06,3.16,0,.69-.21.81-.9.74-.39,0-.43-.23-.44-.55,0-1.23,0-2.46-.09-3.69A36.18,36.18,0,0,0,30,14.57c-.06-.26-.41-.62.06-.83a1.09,1.09,0,0,1,1.12.59c.17.54.32,1.1.46,1.66s.18.85.28,1.28c.27-.07.29-.29.39-.45l2-3.55.12-.21c.19-.33.43-.76.84-.56s.23.7.07,1.06a32.12,32.12,0,0,1-1.58,3c-.23.39-.44.79-.71,1.26a1.39,1.39,0,0,1,1.18.91A16.47,16.47,0,0,0,37,22.69s0,0,0,0c.18.29.55.61.21.94s-.71.14-1-.09a9.56,9.56,0,0,1-2.67-3.19C33.2,19.87,32.89,19.34,32.58,18.79Z"/><path d="M14.15,19a10.8,10.8,0,0,1,1.2-5.27A2,2,0,0,1,18.16,13a3.15,3.15,0,0,1,.67.59,7.83,7.83,0,0,1,1,8.15,2.78,2.78,0,0,1-3.55,1.62c-1.45-.44-1.84-1.65-2.05-2.95A10.49,10.49,0,0,1,14.15,19Zm5.14-.41A7,7,0,0,0,17.61,14c-.51-.61-.87-.55-1.25.15a3.17,3.17,0,0,0-.17.38,11.62,11.62,0,0,0-.66,5.75,3.49,3.49,0,0,0,.61,1.61c.79,1.08,1.74,1,2.4-.12A6.3,6.3,0,0,0,19.29,18.62Z"/></g></g></svg>