<svg xmlns="http://www.w3.org/2000/svg" viewBox="0 0 34.06 21.29"><g id="Layer_2" data-name="Layer 2"><g id="Layer_1-2" data-name="Layer 1"><path d="M12.88,17.35c-.45-2.47-.28-5-.65-7.43A27.1,27.1,0,0,1,12,2.78a10.93,10.93,0,0,0,.1-2.14c0-.6.37-.59.72-.63s.63.18.62.6a18.43,18.43,0,0,1-.1,2,24.94,24.94,0,0,0,.11,7c.14,1.07.24,2.14.31,3.21A26,26,0,0,0,14.27,17a9,9,0,0,1,.14,2.37c0,.37.11.8-.38,1a1.34,1.34,0,0,1-1.36-.54c-.29-.55-.48-1.14-.79-1.67a72,72,0,0,1-5-11.29c0-.11-.08-.21-.16-.39A.71.71,0,0,0,6.62,7c.32,2.43.19,4.88.34,7.32a37.51,37.51,0,0,1,0,5.61A1,1,0,0,1,6,21c-.45.11-.49,0-.46-.37.07-.86.18-1.71.17-2.56,0-3.82-.18-7.64-.47-11.45a22.77,22.77,0,0,1,.08-4.29,2,2,0,0,0,0-.77C5.2,1,5.59,1,6,.9a.57.57,0,0,1,.75.49,41.25,41.25,0,0,0,3.22,9.84,51.31,51.31,0,0,0,2.64,5.62C12.67,17,12.78,17.18,12.88,17.35Z"/><path d="M26.8,11a21,21,0,0,1,2.14-9.56c.08-.17.15-.31.35-.36a4.76,4.76,0,0,1,2.19,0c.34.06.51.36.69.63a13.49,13.49,0,0,1,1.56,4.79,25,25,0,0,1,0,8.36c-.16,1.08-.18,2.18-.44,3.25a3.5,3.5,0,0,1-1.87,2.49,2.18,2.18,0,0,1-2.72-.44,5.42,5.42,0,0,1-1.49-3.37C26.92,14.66,26.87,12.54,26.8,11Zm1.21.29c0,1.88.14,3.57.34,5.25a5.26,5.26,0,0,0,1.33,3.25.75.75,0,0,0,1,.16A2.57,2.57,0,0,0,32,18.23a15.65,15.65,0,0,0,.44-2.64,29.05,29.05,0,0,0,.29-8,16.8,16.8,0,0,0-1.4-5.34c-.24-.49-.64-.43-1.06-.46s-.43.32-.53.58l-.21.56C28.55,5.68,27.67,8.45,28,11.24Z"/><path d="M17,14.65c.06-3.52-.28-7-.44-10.55,0-.84-.1-1.69-.14-2.54,0-.15,0-.34.18-.39s.23.11.33.2a1.46,1.46,0,0,0,1,.35,53.7,53.7,0,0,0,6.59-.14,6,6,0,0,1,.95,0,.45.45,0,0,1,.43.49.45.45,0,0,1-.4.46,3.3,3.3,0,0,1-.77.07c-2.23-.17-4.47.06-6.7-.08-.32,0-.36.14-.35.4.13,1.74.25,3.49.37,5.23,0,.16,0,.35.25.3,1.44-.29,2.91-.14,4.34-.44a1.47,1.47,0,0,1,.88,0c.23.08.4.21.39.46a.44.44,0,0,1-.5.41,42.37,42.37,0,0,1-4.78.22c-.49,0-.55.11-.52.56A48.49,48.49,0,0,1,18.19,17a8.79,8.79,0,0,0,.22,2.61c.1.38.17.72-.31.86a1,1,0,0,1-1-.65,14.12,14.12,0,0,1-.17-2.43c0-.24,0-.48,0-.72C17,16,17,15.33,17,14.65Z"/><path d="M2.54,15.8c0,1.27,0,2.54,0,3.81a3.87,3.87,0,0,0,.12.82c.08.36.12.69-.31.84a1.11,1.11,0,0,1-1.09-.59,11.57,11.57,0,0,1-.11-1.31C1.05,14.66.56,10,.39,5.26.34,4,.17,2.69.07,1.4c0-.26-.25-.62.22-.73a.88.88,0,0,1,1,.63c.11.64.18,1.3.24,2C1.91,7.43,2,11.62,2.54,15.8Z"/></g></g></svg>