<svg xmlns="http://www.w3.org/2000/svg" viewBox="0 0 36.49 20.53"><g id="Layer_2" data-name="Layer 2"><g id="Layer_1-2" data-name="Layer 1"><path d="M25,18.83a20.77,20.77,0,0,0,0-2.74,105.47,105.47,0,0,1-.1-13.54A6,6,0,0,0,25.05,1c-.06-.34.4-.38.67-.45a.46.46,0,0,1,.6.35,1.6,1.6,0,0,1,.05.65,49.12,49.12,0,0,0-.32,8.57c.05,2.17.2,4.34.29,6.5a13.63,13.63,0,0,1-.12,2.92c-.19,1.08-.61,1.28-1.74.56a2.91,2.91,0,0,1-1-1.18,21.6,21.6,0,0,1-1.67-4.46.92.92,0,0,0-.26-.58,13.81,13.81,0,0,0-.28,2.62,18.12,18.12,0,0,1-.21,2.44c-.08.39-.22.74-.7.75a1.09,1.09,0,0,1-1.1-.79A76.71,76.71,0,0,1,17.71,8.31c-.21-2-.5-4-.75-6,0-.25-.19-.53.07-.72s.42.16.63.26c.52.25.57.72.64,1.2.54,3.48.93,7,1.3,10.48.06.62.2,1.25.3,1.87.26,0,.18-.19.2-.31.26-1.63.37-3.27.47-4.92a1,1,0,0,1,.8-.91c.38-.13.57.17.66.51.27,1.14.54,2.29.83,3.42A26,26,0,0,0,24.4,17.8,3.18,3.18,0,0,0,25,18.83Z"/><path d="M6.61,15.82c-.07-1.43-.13-2.84-.22-4.25-.14-2-.34-4-.52-5.94A26.39,26.39,0,0,1,6,1.46,3.08,3.08,0,0,0,6,.93.74.74,0,0,1,6.79.16c.47,0,.5.37.49.73a2.57,2.57,0,0,1,0,.48,24.57,24.57,0,0,0,.14,7c.25,2.14.23,4.29.46,6.43.17,1.52.3,3,.45,4.57,0,.34.1.7-.31.88a1.12,1.12,0,0,1-1.1-.51C5.07,15.49,3,11.34,1.88,6.8a.33.33,0,0,0-.25-.33v.7c0,3,.14,6.05.21,9.07,0,.86,0,1.71,0,2.57a2.83,2.83,0,0,1-.09.65c-.1.39-.31.72-.78.67s-.35-.49-.35-.77C.62,15,.24,10.57.35,6.17.39,4.62.19,3.08.19,1.52A2.36,2.36,0,0,0,.1,1C-.09.25-.06.18.6,0s.71.26.83.69c.88,3,1.75,6,2.63,8.93C4.7,11.79,5.78,13.75,6.61,15.82Z"/><path d="M14.41,20.17a15.5,15.5,0,0,0-2.45.1c-.77.14-1-.15-1.05-.91-.11-1.54-.48-3.06-.63-4.59C10.1,13,10,11.12,10,9.29c0-2.27-.2-4.53-.28-6.8a5,5,0,0,0-.13-.76c0-.2-.1-.41.09-.55a.58.58,0,0,1,.68-.08,2,2,0,0,0,1.25.3,26.36,26.36,0,0,1,2.65.51.43.43,0,0,1,.4.51c0,.29-.29.37-.55.32-.91-.17-1.81-.34-2.7-.55-.43-.1-.53,0-.49.43.2,2.44.36,4.89.36,7.34,0,.42.11.62.59.52a7.86,7.86,0,0,1,2.32.13c.27,0,.48.15.45.45s-.24.4-.51.38c-.76-.06-1.51-.12-2.27-.21-.37,0-.48.06-.47.44a73.64,73.64,0,0,0,.91,7.4c0,.26.19.25.38.25.9,0,1.8,0,2.7,0a1,1,0,0,0,.74-.31.6.6,0,0,1,.82-.08.59.59,0,0,1,.31.6c-.06.35-.33.48-.63.55A13,13,0,0,1,14.41,20.17Z"/><path d="M33.06,20.53a8.91,8.91,0,0,1-4.16-1.34,1.37,1.37,0,0,1-.73-1.1.6.6,0,0,1,.5-.7c.32-.1.51.11.59.37A2,2,0,0,0,30.56,19a6.47,6.47,0,0,0,2.83.7,1.65,1.65,0,0,0,1.72-2.14,3.85,3.85,0,0,0-.82-1.7,20.42,20.42,0,0,0-3.24-2.92,6.51,6.51,0,0,1-2.24-3.1,3.79,3.79,0,0,1-.13-1.94,9.73,9.73,0,0,1,3-5.41,5.56,5.56,0,0,1,1.88-1c.26-.09.6-.18.73.16s-.09.55-.38.7a7.75,7.75,0,0,0-4,6.11,4,4,0,0,0,1.35,3.21,14.12,14.12,0,0,0,1.92,1.61,14.15,14.15,0,0,1,2.37,2.27,3.88,3.88,0,0,1,.65,1.07c.89,2.21-.09,3.75-2.49,3.92Z"/></g></g></svg>