<svg xmlns="http://www.w3.org/2000/svg" viewBox="0 0 45 20.53"><g id="Layer_2" data-name="Layer 2"><g id="Layer_1-2" data-name="Layer 1"><g id="news"><path d="M32,18.83a20.69,20.69,0,0,0,0-2.74A105.47,105.47,0,0,1,31.9,2.55,6.41,6.41,0,0,0,32,1c-.06-.34.4-.38.66-.45a.47.47,0,0,1,.61.35,1.79,1.79,0,0,1,.05.65A49.13,49.13,0,0,0,33,10.08c.06,2.17.2,4.34.3,6.5a13.63,13.63,0,0,1-.12,2.92c-.19,1.08-.62,1.28-1.74.56a3,3,0,0,1-1-1.18,22.81,22.81,0,0,1-1.67-4.46.87.87,0,0,0-.26-.58,15.65,15.65,0,0,0-.28,2.62,16.63,16.63,0,0,1-.21,2.44c-.07.39-.21.74-.7.75a1.09,1.09,0,0,1-1.09-.79A75.21,75.21,0,0,1,24.69,8.31c-.21-2-.5-4-.75-6,0-.25-.19-.53.07-.72s.42.16.62.26c.53.25.57.72.65,1.2.54,3.48.93,7,1.29,10.48.07.62.2,1.25.3,1.87.27,0,.19-.19.21-.31.25-1.63.37-3.27.47-4.92a1,1,0,0,1,.8-.91c.38-.13.57.17.65.51.28,1.14.55,2.29.84,3.42a26,26,0,0,0,1.54,4.64A3.18,3.18,0,0,0,32,18.83Z"/><path d="M6.61,15.82c-.07-1.43-.13-2.84-.22-4.25-.14-2-.34-4-.52-5.94A26.39,26.39,0,0,1,6,1.46,3.08,3.08,0,0,0,6,.93.74.74,0,0,1,6.79.16c.47,0,.5.37.49.73a2.57,2.57,0,0,1,0,.48,24.57,24.57,0,0,0,.14,7c.25,2.14.23,4.29.46,6.43.17,1.52.3,3,.45,4.57,0,.34.1.7-.31.88a1.12,1.12,0,0,1-1.1-.51C5.07,15.49,3,11.34,1.88,6.8a.33.33,0,0,0-.25-.33v.7c0,3,.14,6.05.21,9.07,0,.86,0,1.71,0,2.57a2.83,2.83,0,0,1-.09.65c-.1.39-.31.72-.78.67s-.35-.49-.35-.77C.62,15,.24,10.57.35,6.17.39,4.62.19,3.08.19,1.52A2.36,2.36,0,0,0,.1,1C-.09.25-.06.18.6,0s.71.26.83.69c.88,3,1.75,6,2.63,8.93C4.7,11.79,5.78,13.75,6.61,15.82Z"/><path d="M17.44,20.17a15.33,15.33,0,0,0-2.44.1c-.78.14-1-.15-1.06-.91-.11-1.54-.48-3.06-.63-4.59C13.14,13,13,11.12,13,9.29c0-2.27-.21-4.53-.29-6.8a5,5,0,0,0-.13-.76c0-.2-.1-.41.1-.55a.57.57,0,0,1,.67-.08,2,2,0,0,0,1.26.3,26.17,26.17,0,0,1,2.64.51.43.43,0,0,1,.4.51c-.05.29-.29.37-.55.32-.9-.17-1.81-.34-2.7-.55-.43-.1-.52,0-.49.43.2,2.44.36,4.89.37,7.34,0,.42.1.62.58.52a7.86,7.86,0,0,1,2.32.13c.27,0,.48.15.45.45s-.24.4-.51.38c-.75-.06-1.51-.12-2.26-.21-.38,0-.48.06-.48.44a73.64,73.64,0,0,0,.91,7.4c0,.26.19.25.38.25.9,0,1.8,0,2.7,0a1.07,1.07,0,0,0,.75-.31.59.59,0,0,1,.81-.08.59.59,0,0,1,.31.6c-.05.35-.33.48-.63.55A13,13,0,0,1,17.44,20.17Z"/><path d="M41.56,20.53a8.94,8.94,0,0,1-4.16-1.34,1.38,1.38,0,0,1-.72-1.1.59.59,0,0,1,.5-.7c.31-.1.5.11.59.37A2,2,0,0,0,39.07,19a6.42,6.42,0,0,0,2.82.7,1.65,1.65,0,0,0,1.73-2.14,3.85,3.85,0,0,0-.82-1.7,20.87,20.87,0,0,0-3.24-2.92,6.44,6.44,0,0,1-2.24-3.1,3.79,3.79,0,0,1-.13-1.94,9.61,9.61,0,0,1,3-5.41,5.56,5.56,0,0,1,1.88-1c.26-.09.6-.18.73.16s-.09.55-.39.7a7.76,7.76,0,0,0-4,6.11,4,4,0,0,0,1.34,3.21,14.2,14.2,0,0,0,1.93,1.61A14.55,14.55,0,0,1,44,15.51a3.88,3.88,0,0,1,.65,1.07c.88,2.21-.09,3.75-2.5,3.92Z"/></g></g></g></svg>